<?xml version="1.0" encoding="UTF-8"?>
<svg id="Layer_1" data-name="Layer 1" xmlns="http://www.w3.org/2000/svg" viewBox="0 0 47.03 47.03">
  <defs>
    <style>
      .cls-1 {
        fill: #2ca7df;
      }
    </style>
  </defs>
  <path class="cls-1" d="m36.42,33.47v9.7c3.62-2.38,6.54-5.74,8.4-9.7h-8.4Z"/>
  <path class="cls-1" d="m36.42,25.95h10.48c.08-.8.13-1.62.13-2.44,0-8.22-4.22-15.45-10.61-19.65v22.09Z"/>
  <path class="cls-1" d="m27.54,33.47H9.36v-6.72c.89-1.81,2.01-3.85,3.34-6.13,1.34-2.28,2.83-4.62,4.47-7.02s3.37-4.75,5.2-7.05c1.8-2.27,3.6-4.32,5.4-6.15-1.38-.25-2.81-.39-4.26-.39C10.53,0,0,10.53,0,23.51s10.53,23.51,23.51,23.51c1.37,0,2.72-.12,4.03-.35v-13.21Z"/>
  <path class="cls-1" d="m18,25.76h9.55v-14.58c-1.58,2.12-3.26,4.42-5.05,6.92-1.78,2.49-3.28,5.05-4.5,7.66Z"/>
</svg>