<svg width="30" height="30" viewBox="0 0 30 30" xmlns="http://www.w3.org/2000/svg">
<path fill="currentColor" fill-rule="evenodd" clip-rule="evenodd" d="M0 4C0 1.79086 1.79086 0 4 0H26C28.2091 0 30 1.79086 30 4V28C30 29.1046 29.1046 30 28 30H2C0.895431 30 0 29.1046 0 28V4ZM11.0799 12.1362C9.73057 12.1362 5 26 5 26H27C27 26 20.6939 5.94388 19.8762 6C19.0585 6.05612 15.4652 19.0716 15.4652 19.0716C15.4652 19.0716 12.4292 12.1362 11.0799 12.1362ZM8 11C10.2091 11 12 9.20914 12 7C12 4.79086 10.2091 3 8 3C5.79086 3 4 4.79086 4 7C4 9.20914 5.79086 11 8 11Z" />
</svg>
